<?xml version="1.0" encoding="utf-8"?>
<!-- Generator: Adobe Illustrator 15.0.0, SVG Export Plug-In . SVG Version: 6.00 Build 0)  -->
<!DOCTYPE svg PUBLIC "-//W3C//DTD SVG 1.1//EN" "http://www.w3.org/Graphics/SVG/1.1/DTD/svg11.dtd">
<svg version="1.1" id="Layer_1" xmlns="http://www.w3.org/2000/svg" xmlns:xlink="http://www.w3.org/1999/xlink" x="0px" y="0px"
	 width="768px" height="920px" viewBox="0 0 768 920" enable-background="new 0 0 768 920" xml:space="preserve">
<path fill="#B6B7B7" d="M0,0c255.974,0,512.027,0,768,0c0,306.638,0,613.368,0,920c-255.973,0-512.026,0-768,0
	C0,613.368,0,306.638,0,0z"/>
<path fill="none" d="M316.653,328.628c-4.946,8.524-5.391,37.434,1.962,43.154c0.261-0.131,0.523-0.262,0.785-0.393
	c0.392-0.262,0.784-0.522,1.177-0.784C320.828,357.747,327.927,334.163,316.653,328.628z"/>
<path fill="none" d="M413.943,371.782c0.539-11.545,8.719-34.974-0.393-43.154c-0.392,0.262-0.784,0.523-1.175,0.785
	c-3.436,10.47-7.985,29.817-1.964,42.369C411.59,371.782,412.767,371.782,413.943,371.782z"/>
<path fill="#B32226" d="M634.418,301.559c-2.704,0.143-7.619,0.551-9.023-0.784c-0.523-6.407-1.046-12.815-1.568-19.224
	c-2.963-16.096-4.898-31.565-9.416-45.899c-17.602-55.831-52.234-101.747-97.29-130.244c-22.185-14.029-46.302-25.626-74.146-34.13
	c-43.386-13.252-108.098-12.773-151.037,0.393c-79.918,24.503-141.202,70.146-172.612,142.797
	c-6.168,14.267-10.565,29.954-14.123,46.684c-8.152,38.33-1.169,85.328,10.199,114.16c28.621,72.588,79.542,120.326,152.214,148.682
	c17.156,6.694,36.004,9.945,56.099,13.731c7.323,0.523,14.646,1.047,21.969,1.567c33.006,5.571,54.831,5.705,69.438,29.814
	c5.549,9.163,8.243,25.312,3.924,37.664c-6.379,18.235-18.584,30.754-37.27,36.483c-36.311,11.134-73.323-13.431-72.968-48.255
	c3.27,0,6.539,0,9.808,0c-0.482,31.093,30.091,50.64,62.375,39.23c14.683-5.188,24.851-16.272,28.639-32.561
	c2.92-12.555-1.178-24.867-6.669-32.563c-14.878-20.841-36.59-16.744-66.691-21.967c-28.691-4.98-54.484-8.684-78.067-18.045
	c-72.729-28.874-123.971-77.454-152.606-150.646c-13.133-33.569-18.699-88.783-8.238-130.244
	c5.095-20.192,12.081-39.811,21.577-56.099c35.345-60.631,87.477-104.647,160.452-127.499
	c54.803-17.162,129.109-15.076,180.851,3.138C553.742,100.664,633.548,177.933,634.418,301.559z"/>
<path fill="#B32226" d="M601.857,301.559c-3.924,0-7.848,0-11.77,0c0.631-30.331-8.364-57.42-17.653-78.853
	c-25.502-58.836-72.541-100.621-136.522-120.829c-12.982-4.101-25.918-5.432-40.799-8.238c-29.58-5.579-66.664-1.489-91.799,5.492
	c-68.086,18.912-123.283,60.89-149.859,121.221c-5.896,13.384-10.049,27.827-13.731,43.546c-8.177,34.913-0.013,77.561,10.2,103.175
	c25.883,64.914,76.693,108.512,145.544,130.244c18.83,5.944,39.581,7.866,61.199,11.771c13.387,2.417,27.204,1.757,38.838,5.491
	c29.119,9.348,50.171,30.578,58.453,60.807c17.693,64.585-53.903,115.825-114.553,99.253c-35.383-9.67-66.09-34.812-65.906-79.639
	c4.052,0,8.108,0,12.162,0c-0.515,49.099,53.489,84.369,105.921,65.907c21.572-7.596,37.835-23.439,46.293-44.329
	c5.826-14.395,5.713-36.397-0.393-50.608c-8.801-20.48-27.393-35.099-49.824-41.976c-13.097-4.013-29.098-1.711-44.721-4.316
	c-20.376-3.391-39.524-4.936-56.883-10.982c-73.394-25.569-122.717-70.494-150.252-142.014
	c-9.837-25.55-16.447-67.413-9.023-101.214c4.178-19.019,9.506-35.551,16.477-51.391c27.699-62.932,91.477-107.679,164.768-125.929
	c26.022-6.48,65.39-10.04,95.722-4.316c13.388,2.527,26.59,4.781,38.838,8.631C524.026,118.06,602.028,195.105,601.857,301.559z"/>
<path fill="#B32226" d="M570.08,301.559c-4.838-0.13-9.677-0.261-14.516-0.392c0.327-20.275-1.566-36.409-6.276-51.392
	c-18.931-60.228-66.842-99.237-127.891-117.69c-22.514-6.805-56.732-11.096-84.737-5.885c-12.317,2.293-24.24,4.073-35.308,7.846
	c-54.102,18.448-96.308,53.225-118.083,103.96c-6.445,15.019-8.693,31.174-11.769,50.215c-4.017,24.858,4.943,54.519,11.376,70.615
	c21.864,54.708,62.329,92.344,120.829,110.236c14.232,4.352,27.807,4.92,43.546,7.455c16.388,2.64,33.075,0.705,47.468,4.313
	c51.252,12.853,84.975,45.628,94.544,100.431c3.624,20.746-2.445,41.552-8.236,54.922c-20.042,46.248-81.803,89.979-151.821,69.046
	C280.13,690.563,240.332,659.113,240.546,595c4.578,0,9.155,0,13.731,0c-0.75,56.416,34.669,83.878,77.284,96.9
	c64.609,19.746,121.211-21.46,138.089-64.729c5.246-13.444,8.197-35.557,4.317-52.961c-9.312-41.766-38.048-68.155-78.854-78.461
	c-9.675-1.179-19.355-2.356-29.03-3.531c-21.889-3.856-44.312-4.604-63.554-10.593c-62.688-19.513-109.321-56.771-133.775-114.553
	c-10.344-24.44-18.672-63.075-11.377-97.683c2.914-13.825,6.665-26.693,11.769-38.446c23.425-53.938,70.71-93.246,129.46-111.805
	c121.429-38.358,226.663,31.562,260.097,116.513C566.122,254.5,570.141,275.576,570.08,301.559z"/>
<path fill="#B32226" d="M539.874,301.559c-5.363,0-10.726,0-16.085,0c1.224-77.161-45.686-117.583-102.392-137.305
	c-29.173-10.147-75.649-12.042-107.099-2.354c-51.817,15.962-89.637,51.893-105.529,103.96
	c-9.816,32.162-2.717,74.451,10.592,97.291c19.983,34.292,46.695,60.035,86.699,74.146c21.604,7.62,48.421,7.592,74.145,12.16
	c8.76,1.047,17.525,2.093,26.284,3.138c52.611,13.202,88.803,42.057,107.883,88.662c5.52,13.482,13.264,38.969,9.808,60.02
	c-2.301,14.012-2.989,26.584-7.453,38.056c-16.589,42.631-49.981,73.212-92.584,89.836c-92.844,36.229-192.737-23.13-213.805-93.366
	c-3.23-10.77-2.01-27.138-1.962-40.802c5.1,0.132,10.202,0.263,15.3,0.394c-0.144,13.944-0.925,29.715,2.354,40.408
	c13.221,43.118,59.237,71.854,104.353,83.558c74.948,19.442,142.774-23.966,165.158-71.79c6.35-13.56,16.991-37.743,13.339-60.021
	c-1.881-11.484-2.433-21.61-5.491-31.386c-10.988-35.09-37.48-63.947-69.438-78.068c-14.367-6.347-29.439-10.58-47.076-14.124
	c-26.466-5.313-54.722-4.201-78.068-11.376c-52.026-15.983-89.844-49.545-109.06-98.467c-7.097-18.068-13.057-47.161-8.238-72.576
	c2.099-11.068,4.098-21.786,7.846-31.384c19.422-49.75,57.762-85.034,110.237-101.606c36.507-11.531,87.945-9.983,121.613,3.138
	C492.373,175.539,540.091,216.767,539.874,301.559z"/>
<path fill="#B32226" d="M489.657,301.559c0.738-64.495-39.415-98.631-88.66-113.375c-71.13-21.295-133.604,22.491-153.39,67.868
	c-6.059,13.897-13.253,34.735-9.415,56.492c9.569,54.238,40.687,87.243,91.406,100.038c30.547,7.705,67.465,4.367,96.115,12.945
	c58.136,17.411,102.345,56.384,120.829,113.377c5.168,15.938,13.27,43.298,9.414,66.689c-3.184,19.324-4.912,35.696-11.378,51.001
	c-22.082,52.272-65.071,88.954-121.612,106.706c-31.936,10.023-79.83,9.804-111.806,0c-61.188-18.763-111.575-52.49-131.029-112.594
	c-5.058-15.62-5.937-35.188-5.885-55.706c6.538,0,13.077,0,19.615,0c-0.194,14.472-0.958,30.726,2.354,41.979
	c17.188,58.393,61.495,93.616,119.652,111.022c12.013,3.591,23.973,2.859,38.053,5.098c20.939,3.33,44.561-1.701,60.415-6.669
	c64.006-20.053,107.774-64.021,120.437-135.735c4.338-24.569-1.817-52.563-8.63-69.83c-19.799-50.175-53.827-83.93-107.49-100.037
	c-26.859-8.063-63.15-4.594-91.407-11.77C265.59,413.4,198.232,350.811,223.677,265.86c16.284-54.365,58.916-86.943,118.083-98.861
	c13.726-2.765,31.868-1.937,44.724,0.785c52.818,11.183,86.732,33.991,110.236,74.145c6.017,10.278,17.36,40.514,12.16,59.63
	C502.473,301.559,496.065,301.559,489.657,301.559z"/>
<path fill="#B32226" d="M475.536,301.559c-7.193,0-14.388,0-21.577,0c-3.445-41.649-29.11-71.336-63.945-81.991
	c-50.944-15.58-94.875,15.942-109.06,50.214c-5.279,12.752-8.952,34.128-3.924,50.607c9.911,32.488,36.949,51.225,71.399,59.238
	c10.459,0.916,20.925,1.831,31.385,2.746c20.803,3.429,40.622,3.845,58.452,9.415c69.72,21.788,115.218,64.97,140.837,131.028
	c10.182,26.255,17.144,68.282,9.809,103.177c-3.267,15.522-6.892,29.946-12.556,43.153
	c-26.919,62.767-77.622,106.205-145.937,127.499c-45.079,14.051-108.6,10.104-148.682-5.494
	C203.358,760.649,135.633,703.652,135.801,595c7.847,0,15.694,0,23.539,0c-0.289,19.998,0.162,38.116,4.707,52.962
	c20.141,65.789,75.152,107.877,141.229,127.891c35.301,10.691,88.62,8.502,122.005-1.961
	c59.597-18.676,104.736-57.354,128.283-112.198c4.903-11.417,8.103-23.977,10.984-37.271c6.386-29.438,0.558-65.916-7.453-88.657
	c-21.604-61.328-65.674-102.685-128.676-122.399c-13.885-4.345-28.73-5.619-44.722-8.238c-11.245-1.046-22.494-2.093-33.738-3.138
	c-49.332-10.791-88.515-35.06-98.86-84.738c-3.976-19.088,1.44-39.588,7.061-52.961c17.811-42.375,72.836-82.921,136.521-63.552
	C440.129,213.95,475.773,244.111,475.536,301.559z"/>
<path fill="#B32226" d="M439.443,301.559c-9.544,0-19.093,0-28.639,0c-0.438-22.76-10.452-35.969-27.852-42.761
	c-38.384-14.982-84.682,23.917-60.416,60.414c18.517,27.851,47.821,21.147,86.7,27.854c22.737,3.923,43.074,8.181,61.983,15.692
	c72.928,28.97,122.563,82.015,151.035,155.745c12.081,31.284,19.41,79.006,10.201,119.258c-4.6,20.102-10.206,37.988-17.653,54.926
	c-29.049,66.031-92.042,117.862-164.769,140.443c-15.807,4.907-32.842,7.596-50.605,10.59c-39.367,6.638-84.69-0.504-115.337-9.807
	c-85.763-26.032-145.266-78.787-176.145-159.667c-8.64-22.629-12.789-48.767-12.946-79.246c9.414,0,18.832,0,28.246,0
	c-0.512,28.13,4.155,53.654,12.161,74.146c27.768,71.07,84.174,116.223,160.059,139.267c26.84,8.15,68.125,14.932,103.176,8.633
	c15.034-2.704,29.343-4.673,42.761-9.025c65.1-21.1,113.25-63.3,142.406-120.437c7.712-15.113,13.083-32.101,17.653-50.216
	c8.826-34.99,3.887-82.546-7.062-110.629c-27.843-71.401-74.898-117.559-148.29-143.189c-16.85-5.883-36.516-9.172-56.491-11.376
	c-11.793-1.299-26.245-0.659-37.662-3.53c-15.63-3.932-28.095-10.246-39.23-18.439c-8.234-6.056-16.115-13.655-20.4-23.537
	c-23.691-54.635,35.103-111.34,92.583-94.153C414.972,241.502,439.755,261.776,439.443,301.559z"/>
<path fill="#010101" d="M466.904,112.078c7.823,0.254,24.685,6.921,27.854,11.377c0.524,1.83,1.045,3.661,1.569,5.492
	c3.531,3.007,7.062,6.016,10.594,9.023c3.777,5.054,5.123,19.981,2.744,28.245c-2.092,3.269-4.185,6.538-6.276,9.808
	c-1.047,4.446-2.093,8.892-3.138,13.338c-2.614,2.876-5.231,5.755-7.848,8.63c3.652,4.723,9.658,5.84,14.909,9.023
	c9.021,6.406,18.048,12.815,27.068,19.223c6.631,4.006,14.949,4.704,19.615,10.592c7.71,9.734,2.624,11.804,5.883,24.714
	c2.356,5.625,4.708,11.248,7.063,16.87c0.393,3.269,0.784,6.539,1.178,9.808c2.571,11.071,6.358,23.269,9.023,35.308
	c2.484,13.99,4.971,27.985,7.452,41.976c4.056,15.989,12.546,34.531,9.023,54.531c-1.463,8.309,3.875,13.657,5.1,20.4
	c2.851,15.695-10.911,27.699-19.615,32.562c-1.829-0.654-3.66-1.309-5.492-1.963c-0.262,0.262-0.522,0.522-0.784,0.785
	c-1.49,7.876,2.941,15.806,4.316,22.36c0,3.139,0,6.276,0,9.415c2.225,10.778,7.082,21.32,9.414,31.386c0,5.229,0,10.462,0,15.691
	c1.306,4.304,1.426,11.81,2.355,17.655c0,2.222,0,4.444,0,6.669c1.045,1.96,2.09,3.921,3.138,5.884
	c-0.131,6.277-0.262,12.554-0.393,18.83c5.104,27.342,6.669,58.941,12.945,84.345c1.299,5.255-0.357,10.87,1.177,16.477
	c1.962,5.232,3.924,10.461,5.886,15.691c0.394,3.333-1.365,5.567,0.392,8.239c4.189,6.374,16.924,10.817,25.499,12.555
	c2.354,0,4.708,0,7.062,0c4.819,1.302,8.098,4.603,14.124,5.49c-0.131,3.924-0.262,7.848-0.393,11.771
	c-12.431,0.641-28.01,7.783-44.331,3.921c-6.67-1.578-9.73-7.174-17.653-7.845c-5.158,7.678-30.775,7.704-34.915-1.179
	c-2.405-5.611,0.742-14.778-1.177-20.4c-2.745-1.044-5.492-2.091-8.238-3.139c-1.548-5.618,0.501-12.74-0.786-19.615
	c-6.119-32.717-7.374-75.822-14.121-109.058c-0.261-7.192-0.522-14.386-0.784-21.577c-2.614-11.414-11.286-18.444-15.301-28.639
	c-4.691-11.911-5.147-29.646-14.515-36.877c-0.262,0-0.523,0-0.785,0c-0.131,0.393-0.262,0.785-0.393,1.179
	c-2.749,5.242-2.621,12.198-3.922,18.829c-5.956,30.333-3.387,69.997,1.961,98.469c-0.131,7.193-0.262,14.385-0.393,21.578
	c1.179,3.27,2.354,6.538,3.531,9.808c-0.131,4.836-0.262,9.676-0.393,14.514c2.354,11.554,9.176,39.664,4.709,52.176
	c-3.521,0.99-6.063,2.816-8.633,4.708c0.283,5.598,3.063,14.738,0.393,19.617c-5.346,9.769-34.678,15.729-42.761,3.53
	c-4.138-6.248,5.702-20.174,7.062-26.678c-2.845-0.518-4.051-1.739-5.884-3.139c0.169-19.03-0.677-38.747-3.138-55.314
	c0.522-4.578,1.045-9.152,1.568-13.729c-2.817-14.297-3.072-34.334-5.886-48.646c0-8.765,0-17.525,0-26.284
	c-2.729-13.505-5.147-29.231-7.846-43.94c-1.307-8.498-2.614-17-3.922-25.498c-1.178-1.83-2.354-3.662-3.531-5.492
	c0.131-2.483,0.263-4.971,0.394-7.454c-1.348-5.73-4.313-10.383-5.102-18.045c-0.406-3.945,1.382-11.685-1.568-14.123
	c-4.907-4.058-19.372,0.393-25.107-5.102c-0.009-10.344,4.86-39.99,3.139-44.33c-2.225,0.262-4.446,0.523-6.67,0.785
	c-5.563-11.612-17.605-22.769-24.715-34.915c-2.615-5.753-5.23-11.509-7.846-17.261c-1.438-4.185-2.876-8.37-4.315-12.554
	c-0.392,0.131-0.784,0.262-1.177,0.393c-6.195,19.428-25.436,53.781-39.623,64.337c-1.721-0.897-4.145-2.033-5.492,0
	c-2.115,8.624,7.862,32.832,2.747,44.33c-6.756,1.641-16.128,1.976-23.538,3.53c-2.079,4.512-2.091,11.203-1.961,16.478
	c0.153,6.257-3.901,10.472-5.101,15.299c0,3.007,0,6.018,0,9.025c-5.935,22.909-10.642,51.806-15.692,76.104
	c0,15.298,0,30.604,0,45.899c-1.83,9.545-3.661,19.095-5.492,28.64c0.654,3.397,1.308,6.798,1.962,10.197
	c-1.046,9.808-2.093,19.615-3.138,29.423c0,8.892,0,17.786,0,26.678c-0.919,2.572-4.152,3.651-5.885,5.494
	c1.731,6.097,9.997,15.735,7.061,23.535c-3.535,7.63-24.224,11.541-34.13,6.277c-3.005-2.877-6.015-5.754-9.022-8.63
	c0.183-7.851,0.335-15.743-1.569-21.575c-2.412-0.646-6.201-1.98-7.062-4.316c-3.589-12.955,3.367-35.767,5.493-47.078
	c1.687-8.975,1.543-19.178,3.139-27.067c0-7.713,0-15.432,0-23.145c4.715-23.073,7.205-48.074,2.746-73.362
	c-2.814-15.97,0.95-32.68-5.884-43.544c-0.393,0-0.785,0-1.177,0c-4.315,9.983-9.5,20.13-13.338,29.813
	c-0.392,2.88-0.785,5.756-1.176,8.633c-4.577,8.106-9.156,16.215-13.73,24.321c-0.131,4.446-0.262,8.894-0.393,13.338
	c-1.177,4.971-2.354,9.941-3.531,14.91c0.131,5.884,0.262,11.771,0.393,17.65c-2.896,17.049-2.504,38.579-5.885,57.279
	c-1.451,8.021-3.635,15.942-5.1,23.145c-1.973,9.693,0.873,21.276-3.138,28.245c-2.485,0.654-4.969,1.31-7.454,1.96
	c-0.921,8.206-0.662,17.607-2.746,23.54c-8.671,1.251-18.924,2.234-29.031,2.355c-1.438-1.571-2.876-3.142-4.314-4.709
	c-7.724,0.995-11.747,6.155-18.831,7.847c-13.852,3.301-31.329-1.564-41.192-4.709c-0.139-2.969-0.71-9.006,0.785-10.593
	c10.826-10.535,36.268-5.881,44.722-18.829c2.616-14.514,5.231-29.034,7.847-43.547c9.133-37.32,10.058-84.271,16.869-123.575
	c0-7.059,0-14.123,0-21.183c2.092-4.971,4.185-9.938,6.277-14.909c0-3.007,0-6.015,0-9.021c2.484-9.677,4.969-19.354,7.454-29.03
	c-0.131-3.793-0.262-7.586-0.392-11.378c0.716-4.381,4.768-9.179,3.53-13.339c-1.216-2.494-4.045-2.928-7.062-3.531
	c-0.127-17.007,9.997-39.08,14.515-54.529c5.323-18.197,5.749-39.86,4.708-61.591c0.654-3.921,1.308-7.846,1.961-11.769
	c-1.308-3.661-2.616-7.323-3.923-10.984c-0.524,0-1.047,0-1.569,0c-7.764,6.379-29.642,34.855-44.331,25.892
	c-2.674-7.537-8.151-12.631-9.807-21.969c-1.764-9.943,5.002-20.903,1.569-28.638c-20.653-8.233-3.304-19.647-10.2-29.815
	c-3.918-7.178-17.23-4.051-17.654-14.907c0.262,0,0.523,0,0.784,0c8.307-4.597,22.388,7.989,29.031,9.415
	c6.489,1.393,11.781-1.208,17.261,2.354c4.727,3.07,4.854,11.568,9.023,15.299c0.392-0.261,0.785-0.522,1.177-0.784
	c2.689-8.106,27.437-42.871,33.738-47.076c5.1-1.701,10.199-3.4,15.3-5.101c3.269-0.131,6.538-0.261,9.808-0.392
	c5.754-4.185,11.509-8.37,17.261-12.554c5.231-2.876,10.462-5.756,15.692-8.63c-1.829-3.869-5.086-6.101-6.669-9.808
	c-1.438-4.315-2.876-8.631-4.315-12.946c-3.016-5.019-6.216-8.429-7.455-15.691c-4.172-24.491,20.647-38.858,34.131-47.077
	c2.605-1.588,19.526,1.728,21.576,2.354c20.609,6.294,38.213,20.225,32.953,48.646c-0.131,4.97-0.262,9.94-0.392,14.908
	c-5.381,11.582-23.283,15.585-25.499,29.814c4.321,8.667,16.576,25.578,24.323,30.6c5.897,3.821,16.784,4.164,20.792,9.808
	c6.015,11.897,12.031,23.801,18.045,35.7c6.266,16.715,8.699,35.555,20.4,46.684c0.262-0.131,0.524-0.262,0.785-0.393
	c2.049-10.326,9.52-18.987,13.338-28.246c2.096-5.082,1.569-12.148,3.922-17.653c4.317-7.454,8.632-14.909,12.948-22.362
	c1.7-4.577,3.398-9.155,5.101-13.73c3.799-5.734,14.551-5.247,20.398-9.023c5.851-3.778,23.444-25.281,25.107-32.562
	c-1.83-2.615-3.661-5.23-5.492-7.845c-5.621-7.037-17.676-12.174-20.792-21.185c-0.131-5.361-0.262-10.725-0.393-16.084
	c-3.521-21.485,10.266-39.325,25.499-44.331C455.431,115.158,459.693,116.018,466.904,112.078z"/>
</svg>
